<svg width="181" height="40" viewBox="0 0 181 40" fill="none" xmlns="http://www.w3.org/2000/svg">
<path d="M50.3068 26.2727L53.4602 31.4034V35H54.517V31.4034L57.6705 26.2727H56.4602L54.0398 30.3466H53.9375L51.517 26.2727H50.3068ZM60.6342 35.1364C62.407 35.1364 63.6001 33.7898 63.6001 31.7614C63.6001 29.7159 62.407 28.3693 60.6342 28.3693C58.8615 28.3693 57.6683 29.7159 57.6683 31.7614C57.6683 33.7898 58.8615 35.1364 60.6342 35.1364ZM60.6342 34.233C59.2876 34.233 58.674 33.0739 58.674 31.7614C58.674 30.4489 59.2876 29.2727 60.6342 29.2727C61.9808 29.2727 62.5945 30.4489 62.5945 31.7614C62.5945 33.0739 61.9808 34.233 60.6342 34.233ZM69.2603 32.3239C69.2603 33.5511 68.3228 34.1136 67.5728 34.1136C66.7376 34.1136 66.141 33.5 66.141 32.5455V28.4545H65.1353V32.6136C65.1353 34.2841 66.0217 35.0852 67.2489 35.0852C68.2376 35.0852 68.8853 34.5568 69.1921 33.892H69.2603V35H70.266V28.4545H69.2603V32.3239ZM72.108 35H73.1136V30.858C73.1136 29.9716 73.8125 29.3239 74.767 29.3239C75.0355 29.3239 75.3125 29.375 75.3807 29.392V28.3693C75.2656 28.3608 75.0014 28.3523 74.8523 28.3523C74.0682 28.3523 73.3864 28.7955 73.1477 29.4432H73.0795V28.4545H72.108V35ZM81.8739 35.1534C83.016 35.1534 83.6126 34.5398 83.8171 34.1136H83.8683V35H84.8739V30.6875C84.8739 28.608 83.2887 28.3693 82.4535 28.3693C81.4648 28.3693 80.3398 28.7102 79.8285 29.9034L80.783 30.2443C81.0046 29.767 81.5288 29.2557 82.4876 29.2557C83.4123 29.2557 83.8683 29.7457 83.8683 30.5852V30.6193C83.8683 31.1051 83.3739 31.0625 82.1808 31.2159C80.9663 31.3736 79.641 31.642 79.641 33.142C79.641 34.4205 80.6296 35.1534 81.8739 35.1534ZM82.0273 34.25C81.2262 34.25 80.6467 33.892 80.6467 33.1932C80.6467 32.4261 81.3455 32.1875 82.1296 32.0852C82.5558 32.0341 83.6978 31.9148 83.8683 31.7102V32.6307C83.8683 33.4489 83.2205 34.25 82.0273 34.25ZM89.3686 35.1364C90.8175 35.1364 91.772 34.25 91.9425 33.0909H90.9368C90.7493 33.8068 90.1527 34.233 89.3686 34.233C88.1754 34.233 87.4084 33.2443 87.4084 31.7273C87.4084 30.2443 88.1925 29.2727 89.3686 29.2727C90.255 29.2727 90.7834 29.8182 90.9368 30.4148H91.9425C91.772 29.1875 90.7322 28.3693 89.3516 28.3693C87.5788 28.3693 86.4027 29.767 86.4027 31.7614C86.4027 33.7216 87.5277 35.1364 89.3686 35.1364ZM96.0717 35.1364C97.5206 35.1364 98.4751 34.25 98.6456 33.0909H97.6399C97.4524 33.8068 96.8558 34.233 96.0717 34.233C94.8786 34.233 94.1115 33.2443 94.1115 31.7273C94.1115 30.2443 94.8956 29.2727 96.0717 29.2727C96.9581 29.2727 97.4865 29.8182 97.6399 30.4148H98.6456C98.4751 29.1875 97.4354 28.3693 96.0547 28.3693C94.282 28.3693 93.1058 29.767 93.1058 31.7614C93.1058 33.7216 94.2308 35.1364 96.0717 35.1364ZM102.775 35.1364C104.548 35.1364 105.741 33.7898 105.741 31.7614C105.741 29.7159 104.548 28.3693 102.775 28.3693C101.002 28.3693 99.8089 29.7159 99.8089 31.7614C99.8089 33.7898 101.002 35.1364 102.775 35.1364ZM102.775 34.233C101.428 34.233 100.815 33.0739 100.815 31.7614C100.815 30.4489 101.428 29.2727 102.775 29.2727C104.121 29.2727 104.735 30.4489 104.735 31.7614C104.735 33.0739 104.121 34.233 102.775 34.233ZM111.401 32.3239C111.401 33.5511 110.463 34.1136 109.713 34.1136C108.878 34.1136 108.282 33.5 108.282 32.5455V28.4545H107.276V32.6136C107.276 34.2841 108.162 35.0852 109.39 35.0852C110.378 35.0852 111.026 34.5568 111.333 33.892H111.401V35H112.407V28.4545H111.401V32.3239ZM115.254 31.0625C115.254 29.9205 115.962 29.2727 116.925 29.2727C117.858 29.2727 118.425 29.8821 118.425 30.9091V35H119.43V30.8409C119.43 29.1705 118.54 28.3693 117.214 28.3693C116.226 28.3693 115.612 28.8125 115.305 29.4773H115.22V28.4545H114.249V35H115.254V31.0625ZM124.115 28.4545H122.717V26.8864H121.711V28.4545H120.723V29.3068H121.711V33.3977C121.711 34.5398 122.632 35.0852 123.484 35.0852C123.859 35.0852 124.098 35.017 124.234 34.9659L124.029 34.0625C123.944 34.0795 123.808 34.1136 123.586 34.1136C123.143 34.1136 122.717 33.9773 122.717 33.125V29.3068H124.115V28.4545ZM130.929 35.1534C132.071 35.1534 132.667 34.5398 132.872 34.1136H132.923V35H133.929V30.6875C133.929 28.608 132.343 28.3693 131.508 28.3693C130.52 28.3693 129.395 28.7102 128.883 29.9034L129.838 30.2443C130.059 29.767 130.583 29.2557 131.542 29.2557C132.467 29.2557 132.923 29.7457 132.923 30.5852V30.6193C132.923 31.1051 132.429 31.0625 131.235 31.2159C130.021 31.3736 128.696 31.642 128.696 33.142C128.696 34.4205 129.684 35.1534 130.929 35.1534ZM131.082 34.25C130.281 34.25 129.701 33.892 129.701 33.1932C129.701 32.4261 130.4 32.1875 131.184 32.0852C131.61 32.0341 132.752 31.9148 132.923 31.7102V32.6307C132.923 33.4489 132.275 34.25 131.082 34.25ZM138.423 35.1364C139.872 35.1364 140.827 34.25 140.997 33.0909H139.991C139.804 33.8068 139.207 34.233 138.423 34.233C137.23 34.233 136.463 33.2443 136.463 31.7273C136.463 30.2443 137.247 29.2727 138.423 29.2727C139.31 29.2727 139.838 29.8182 139.991 30.4148H140.997C140.827 29.1875 139.787 28.3693 138.406 28.3693C136.634 28.3693 135.457 29.767 135.457 31.7614C135.457 33.7216 136.582 35.1364 138.423 35.1364ZM145.314 28.4545H143.916V26.8864H142.911V28.4545H141.922V29.3068H142.911V33.3977C142.911 34.5398 143.831 35.0852 144.683 35.0852C145.058 35.0852 145.297 35.017 145.433 34.9659L145.229 34.0625C145.143 34.0795 145.007 34.1136 144.786 34.1136C144.342 34.1136 143.916 33.9773 143.916 33.125V29.3068H145.314V28.4545ZM146.827 35H147.832V28.4545H146.827V35ZM147.338 27.3636C147.73 27.3636 148.054 27.0568 148.054 26.6818C148.054 26.3068 147.73 26 147.338 26C146.946 26 146.622 26.3068 146.622 26.6818C146.622 27.0568 146.946 27.3636 147.338 27.3636ZM155.027 28.4545H153.936L152.129 33.6705H152.061L150.254 28.4545H149.163L151.583 35H152.606L155.027 28.4545ZM158.081 35.1534C159.223 35.1534 159.82 34.5398 160.024 34.1136H160.075V35H161.081V30.6875C161.081 28.608 159.496 28.3693 158.661 28.3693C157.672 28.3693 156.547 28.7102 156.036 29.9034L156.99 30.2443C157.212 29.767 157.736 29.2557 158.695 29.2557C159.619 29.2557 160.075 29.7457 160.075 30.5852V30.6193C160.075 31.1051 159.581 31.0625 158.388 31.2159C157.173 31.3736 155.848 31.642 155.848 33.142C155.848 34.4205 156.837 35.1534 158.081 35.1534ZM158.234 34.25C157.433 34.25 156.854 33.892 156.854 33.1932C156.854 32.4261 157.553 32.1875 158.337 32.0852C158.763 32.0341 159.905 31.9148 160.075 31.7102V32.6307C160.075 33.4489 159.428 34.25 158.234 34.25ZM165.763 28.4545H164.365V26.8864H163.36V28.4545H162.371V29.3068H163.36V33.3977C163.36 34.5398 164.28 35.0852 165.132 35.0852C165.507 35.0852 165.746 35.017 165.882 34.9659L165.678 34.0625C165.593 34.0795 165.456 34.1136 165.235 34.1136C164.792 34.1136 164.365 33.9773 164.365 33.125V29.3068H165.763V28.4545ZM169.95 35.1364C171.279 35.1364 172.251 34.4716 172.558 33.483L171.586 33.2102C171.331 33.892 170.738 34.233 169.95 34.233C168.77 34.233 167.956 33.4702 167.909 32.0682H172.66V31.642C172.66 29.2045 171.211 28.3693 169.848 28.3693C168.075 28.3693 166.899 29.767 166.899 31.7784C166.899 33.7898 168.058 35.1364 169.95 35.1364ZM167.909 31.1989C167.977 30.1804 168.697 29.2727 169.848 29.2727C170.939 29.2727 171.637 30.0909 171.637 31.1989H167.909ZM176.662 35.1364C177.923 35.1364 178.349 34.3523 178.571 33.9943H178.69V35H179.662V26.2727H178.656V29.4943H178.571C178.349 29.1534 177.957 28.3693 176.679 28.3693C175.025 28.3693 173.883 29.6818 173.883 31.7443C173.883 33.8239 175.025 35.1364 176.662 35.1364ZM176.798 34.233C175.537 34.233 174.889 33.125 174.889 31.7273C174.889 30.3466 175.52 29.2727 176.798 29.2727C178.025 29.2727 178.673 30.2614 178.673 31.7273C178.673 33.2102 178.008 34.233 176.798 34.233Z" fill="#696D76"/>
<path d="M59.7195 8.25355C59.4062 5.99148 57.6662 4.67898 55.4091 4.67898C52.7493 4.67898 50.7457 6.6179 50.7457 9.90909C50.7457 13.1953 52.7244 15.1392 55.4091 15.1392C57.8303 15.1392 59.4361 13.5732 59.7195 11.6293L57.8601 11.6193C57.6264 12.8125 56.652 13.4837 55.4339 13.4837C53.7834 13.4837 52.6001 12.2457 52.6001 9.90909C52.6001 7.61222 53.7734 6.33452 55.4389 6.33452C56.6768 6.33452 57.6463 7.03551 57.8601 8.25355H59.7195ZM64.66 15.1491C66.8972 15.1491 68.3191 13.5732 68.3191 11.2116C68.3191 8.84517 66.8972 7.2642 64.66 7.2642C62.4228 7.2642 61.0009 8.84517 61.0009 11.2116C61.0009 13.5732 62.4228 15.1491 64.66 15.1491ZM64.6699 13.7074C63.432 13.7074 62.8255 12.6037 62.8255 11.2067C62.8255 9.80966 63.432 8.69105 64.6699 8.69105C65.888 8.69105 66.4945 9.80966 66.4945 11.2067C66.4945 12.6037 65.888 13.7074 64.6699 13.7074ZM71.6463 10.5256C71.6463 9.42188 72.3125 8.78551 73.2621 8.78551C74.1918 8.78551 74.7486 9.39702 74.7486 10.4162V15H76.5483V10.1378C76.5533 8.30824 75.5092 7.2642 73.9332 7.2642C72.7898 7.2642 72.0043 7.81108 71.6562 8.66122H71.5668V7.36364H69.8466V15H71.6463V10.5256ZM81.6989 18.0227C83.7621 18.0227 85.2834 17.0781 85.2834 15.1243V7.36364H83.5085V8.62642H83.4091C83.1357 8.07457 82.5639 7.2642 81.2166 7.2642C79.4517 7.2642 78.0646 8.64631 78.0646 11.157C78.0646 13.6477 79.4517 14.8906 81.2116 14.8906C82.5192 14.8906 83.1307 14.1896 83.4091 13.6278H83.4986V15.0746C83.4986 16.1982 82.7528 16.6605 81.7287 16.6605C80.6449 16.6605 80.1676 16.1484 79.9489 15.701L78.3281 16.0938C78.6562 17.1626 79.755 18.0227 81.6989 18.0227ZM81.7138 13.4787C80.5256 13.4787 79.8991 12.554 79.8991 11.147C79.8991 9.75994 80.5156 8.74077 81.7138 8.74077C82.8722 8.74077 83.5085 9.70028 83.5085 11.147C83.5085 12.6037 82.8622 13.4787 81.7138 13.4787ZM87.1278 15H88.9276V10.5107C88.9276 9.54119 89.6584 8.85511 90.6477 8.85511C90.951 8.85511 91.3288 8.9098 91.483 8.95952V7.30398C91.3189 7.27415 91.0355 7.25426 90.8366 7.25426C89.9616 7.25426 89.2308 7.75142 88.9524 8.63636H88.8729V7.36364H87.1278V15ZM94.7257 15.1541C95.9238 15.1541 96.6397 14.5923 96.9679 13.951H97.0275V15H98.7576V9.8892C98.7576 7.87074 97.112 7.2642 95.6554 7.2642C94.0495 7.2642 92.8166 7.98011 92.4189 9.37216L94.0993 9.6108C94.2782 9.08878 94.7853 8.64134 95.6653 8.64134C96.5005 8.64134 96.9579 9.06889 96.9579 9.8196V9.84943C96.9579 10.3665 96.416 10.3913 95.0687 10.5355C93.5872 10.6946 92.1703 11.1371 92.1703 12.8572C92.1703 14.3587 93.269 15.1541 94.7257 15.1541ZM95.193 13.8317C94.4423 13.8317 93.9054 13.4886 93.9054 12.8274C93.9054 12.1364 94.5069 11.848 95.3123 11.7337C95.7846 11.669 96.7292 11.5497 96.9629 11.3608V12.2607C96.9629 13.1108 96.2768 13.8317 95.193 13.8317ZM104.381 7.36364H102.874V5.53409H101.074V7.36364H99.9906V8.75568H101.074V13.0014C101.064 14.4382 102.108 15.1442 103.461 15.1044C103.973 15.0895 104.326 14.9901 104.52 14.9254L104.216 13.5185C104.117 13.5433 103.913 13.5881 103.689 13.5881C103.237 13.5881 102.874 13.429 102.874 12.7031V8.75568H104.381V7.36364ZM110.753 11.7884C110.753 12.9517 109.923 13.5284 109.127 13.5284C108.262 13.5284 107.685 12.9169 107.685 11.9474V7.36364H105.886V12.2259C105.886 14.0604 106.93 15.0994 108.431 15.0994C109.575 15.0994 110.38 14.4979 110.728 13.6428H110.808V15H112.553V7.36364H110.753V11.7884ZM116.203 4.81818H114.403V15H116.203V4.81818ZM120.251 15.1541C121.449 15.1541 122.165 14.5923 122.493 13.951H122.553V15H124.283V9.8892C124.283 7.87074 122.637 7.2642 121.181 7.2642C119.575 7.2642 118.342 7.98011 117.944 9.37216L119.625 9.6108C119.804 9.08878 120.311 8.64134 121.191 8.64134C122.026 8.64134 122.483 9.06889 122.483 9.8196V9.84943C122.483 10.3665 121.941 10.3913 120.594 10.5355C119.113 10.6946 117.696 11.1371 117.696 12.8572C117.696 14.3587 118.794 15.1541 120.251 15.1541ZM120.718 13.8317C119.968 13.8317 119.431 13.4886 119.431 12.8274C119.431 12.1364 120.032 11.848 120.838 11.7337C121.31 11.669 122.255 11.5497 122.488 11.3608V12.2607C122.488 13.1108 121.802 13.8317 120.718 13.8317ZM129.906 7.36364H128.4V5.53409H126.6V7.36364H125.516V8.75568H126.6V13.0014C126.59 14.4382 127.634 15.1442 128.986 15.1044C129.498 15.0895 129.851 14.9901 130.045 14.9254L129.742 13.5185C129.642 13.5433 129.439 13.5881 129.215 13.5881C128.762 13.5881 128.4 13.429 128.4 12.7031V8.75568H129.906V7.36364ZM131.411 15H133.211V7.36364H131.411V15ZM132.316 6.27983C132.888 6.27983 133.355 5.84233 133.355 5.3054C133.355 4.76349 132.888 4.32599 132.316 4.32599C131.739 4.32599 131.272 4.76349 131.272 5.3054C131.272 5.84233 131.739 6.27983 132.316 6.27983ZM138.392 15.1491C140.63 15.1491 142.051 13.5732 142.051 11.2116C142.051 8.84517 140.63 7.2642 138.392 7.2642C136.155 7.2642 134.733 8.84517 134.733 11.2116C134.733 13.5732 136.155 15.1491 138.392 15.1491ZM138.402 13.7074C137.164 13.7074 136.558 12.6037 136.558 11.2067C136.558 9.80966 137.164 8.69105 138.402 8.69105C139.62 8.69105 140.227 9.80966 140.227 11.2067C140.227 12.6037 139.62 13.7074 138.402 13.7074ZM145.379 10.5256C145.379 9.42188 146.045 8.78551 146.994 8.78551C147.924 8.78551 148.481 9.39702 148.481 10.4162V15H150.281V10.1378C150.286 8.30824 149.242 7.2642 147.666 7.2642C146.522 7.2642 145.737 7.81108 145.389 8.66122H145.299V7.36364H143.579V15H145.379V10.5256ZM158.146 9.3821C157.897 8.08949 156.863 7.2642 155.073 7.2642C153.234 7.2642 151.981 8.16903 151.986 9.58097C151.981 10.6946 152.667 11.4304 154.134 11.7337L155.436 12.0071C156.137 12.1612 156.465 12.4446 156.465 12.8771C156.465 13.3991 155.899 13.7919 155.044 13.7919C154.218 13.7919 153.681 13.4339 153.527 12.7479L151.772 12.9169C151.996 14.3189 153.174 15.1491 155.048 15.1491C156.958 15.1491 158.305 14.1598 158.31 12.7131C158.305 11.6243 157.604 10.9581 156.162 10.6449L154.86 10.3665C154.084 10.1925 153.776 9.92401 153.781 9.48153C153.776 8.96449 154.347 8.60653 155.098 8.60653C155.928 8.60653 156.366 9.05895 156.505 9.56108L158.146 9.3821Z" fill="#212832"/>
<rect width="40" height="40" rx="6" fill="#4AB5E3"/>
<circle cx="20" cy="20" r="10" fill="white"/>
<path d="M15 20L18.5 23.5L25 17" stroke="#4AB5E3" stroke-linecap="round" stroke-linejoin="round"/>
</svg>
